<?xml version="1.0" encoding="utf-8"?>
<!-- Generator: Adobe Illustrator 22.0.0, SVG Export Plug-In . SVG Version: 6.00 Build 0)  -->
<svg version="1.1" id="Capa_1" xmlns="http://www.w3.org/2000/svg" xmlns:xlink="http://www.w3.org/1999/xlink" x="0px" y="0px"
	 viewBox="0 0 26 28" style="enable-background:new 0 0 26 28;" xml:space="preserve">
<style type="text/css">
	.st0{fill:#F2F0F0;}
</style>
<title>Agenda</title>
<g>
	<path class="st0" d="M23,0H3C1.3,0,0,1.3,0,3v22c0,1.7,1.3,3,3,3h20c1.7,0,3-1.3,3-3V3C26,1.3,24.7,0,23,0z M14,2v5l-1.2-1.6
		c-0.3-0.4-1-0.5-1.4-0.2c-0.1,0.1-0.1,0.1-0.2,0.2L10,7V2H14z M2,25V3c0-0.6,0.4-1,1-1h1v24H3C2.4,26,2,25.6,2,25z M24,25
		c0,0.6-0.4,1-1,1H6V2h2v8c0,0.6,0.4,1,1,1c0.3,0,0.6-0.1,0.8-0.4L12,7.7l2.2,2.9c0.3,0.4,1,0.5,1.4,0.2c0.3-0.2,0.4-0.5,0.4-0.8V2
		h7c0.6,0,1,0.4,1,1V25z"/>
	<path class="st0" d="M19,17h-8c-0.6,0-1,0.4-1,1v5c0,0.6,0.4,1,1,1h8c0.6,0,1-0.4,1-1v-5C20,17.4,19.6,17,19,17z M18,22h-6v-3h6V22
		z"/>
</g>
</svg>
